<?xml version="1.0" encoding="utf-8"?>
<!-- Generator: Adobe Illustrator 17.1.0, SVG Export Plug-In . SVG Version: 6.00 Build 0)  -->
<!DOCTYPE svg PUBLIC "-//W3C//DTD SVG 1.1//EN" "http://www.w3.org/Graphics/SVG/1.1/DTD/svg11.dtd">
<svg version="1.1" id="Layer_1" xmlns="http://www.w3.org/2000/svg" x="0px" y="0px"
	 viewBox="0 0 599.1 309" enable-background="new 0 0 599.1 309" xml:space="preserve">
<g>
	<g>
		<g>
			<path d="M158.5,92.8H171c3.9,0,5.3,1.6,4.5,5.3c-0.8,3.7-2.8,5.3-6.7,5.3h-12.5L158.5,92.8z M137.3,126.1h14l3-14h17.8
				c11.3,0,16.4-7.1,17.9-14c1.7-8-1.1-14-12.5-14h-31.1L137.3,126.1z"/>
			<path d="M244.2,109.9c-3.6,9.1-10.4,17.5-30.4,17.5c-17.8,0-24.8-7.8-21.7-22.4c3-14.1,13-22.4,31.2-22.4
				c12.9,0,22.9,2.9,22.8,17.5h-15.6c-0.2-3-1.2-8.1-9.1-8.1c-8.8,0-12.9,6-14.4,12.9c-1.5,7-0.2,12.9,8.9,12.9
				c6.3,0,10.8-3.2,12.8-8.1H244.2z"/>
			<path d="M255.7,84h14l-9,42.1h-14L255.7,84z"/>
			<path d="M361.4,196.8c0.2-2.9-1.7-4.9-8.1-4.9c-4.7,0-7.6,1.4-8.2,4.1c-0.3,1.4,0.5,2.2,2.6,2.6c3.4,0.6,13.9,2.2,17.9,2.9
				c7.6,1.4,11.6,4.5,10,12c-3,14.3-21.6,14.4-27.4,14.4c-14.3,0-24.1-2.5-22.4-14.3h16.6c-0.3,3.2,1,5.2,8.3,5.2
				c3.5,0,7.5-0.8,8.3-4.4c0.5-2.2-1.1-3-5.9-3.8l-13.6-2.1c-8.4-1.3-10.8-5.7-9.5-11.9c1.2-5.5,6.3-13.4,24.7-13.4
				c15.3,0,23.7,3.7,22.5,13.6H361.4z"/>
			<path d="M387.5,184.4h14l-9,42.1h-14L387.5,184.4z"/>
			<path d="M434.4,202.7H457l-5.1,23.9h-6.5l-0.8-4.4c-2.3,2.1-8.5,5.7-19.4,5.7c-18.4,0-24.8-7.8-21.7-22.4
				c2.6-12.4,13-22.4,31.2-22.4c11.6,0,24.1,3,23.3,15.2h-15.9c-0.2-3.2-2.1-6.1-8.7-6.1c-8.6,0-13.8,5.9-15.3,13.3
				c-1.6,7.3,1.1,13.2,9.7,13.2c6.9,0,11.1-2.6,13.4-7.4h-8.6L434.4,202.7z"/>
			<path d="M158.5,92.8H171c3.9,0,5.3,1.6,4.5,5.3c-0.8,3.7-2.8,5.3-6.7,5.3h-12.5L158.5,92.8z M137.3,126.1h14l3-14h17.8
				c11.3,0,16.4-7.1,17.9-14c1.7-8-1.1-14-12.5-14h-31.1L137.3,126.1z"/>
			<path d="M244.2,109.9c-3.6,9.1-10.4,17.5-30.4,17.5c-17.8,0-24.8-7.8-21.7-22.4c3-14.1,13-22.4,31.2-22.4
				c12.9,0,22.9,2.9,22.8,17.5h-15.6c-0.2-3-1.2-8.1-9.1-8.1c-8.8,0-12.9,6-14.4,12.9c-1.5,7-0.2,12.9,8.9,12.9
				c6.3,0,10.8-3.2,12.8-8.1H244.2z"/>
			<path d="M255.7,84h14l-9,42.1h-14L255.7,84z"/>
			<path d="M361.4,196.8c0.2-2.9-1.7-4.9-8.1-4.9c-4.7,0-7.6,1.4-8.2,4.1c-0.3,1.4,0.5,2.2,2.6,2.6c3.4,0.6,13.9,2.2,17.9,2.9
				c7.6,1.4,11.6,4.5,10,12c-3,14.3-21.6,14.4-27.4,14.4c-14.3,0-24.1-2.5-22.4-14.3h16.6c-0.3,3.2,1,5.2,8.3,5.2
				c3.5,0,7.5-0.8,8.3-4.4c0.5-2.2-1.1-3-5.9-3.8l-13.6-2.1c-8.4-1.3-10.8-5.7-9.5-11.9c1.2-5.5,6.3-13.4,24.7-13.4
				c15.3,0,23.7,3.7,22.5,13.6H361.4z"/>
			<path d="M387.5,184.4h14l-9,42.1h-14L387.5,184.4z"/>
			<path d="M434.4,202.7H457l-5.1,23.9h-6.5l-0.8-4.4c-2.3,2.1-8.5,5.7-19.4,5.7c-18.4,0-24.8-7.8-21.7-22.4
				c2.6-12.4,13-22.4,31.2-22.4c11.6,0,24.1,3,23.3,15.2h-15.9c-0.2-3.2-2.1-6.1-8.7-6.1c-8.6,0-13.8,5.9-15.3,13.3
				c-1.6,7.3,1.1,13.2,9.7,13.2c6.9,0,11.1-2.6,13.4-7.4h-8.6L434.4,202.7z"/>
			<g>
				<path fill="#25358E" d="M290.1,122.8c-1.8-4.4-2.4-9.1-1.8-14.3c0.1-0.7,0.2-1.4,0.3-2.2l-6,25.3
					c-10,49.7,165.5,42.3,238.6,43.3C444.8,173.7,308.3,167.2,290.1,122.8z"/>

					<linearGradient id="SVGID_1_" gradientUnits="userSpaceOnUse" x1="321.2144" y1="277.4072" x2="306.1069" y2="305.298" gradientTransform="matrix(1.6388 0 0 1.6388 -209.1364 -378.1123)">
					<stop  offset="0" style="stop-color:#ABAAD2"/>
					<stop  offset="1" style="stop-color:#25358E"/>
				</linearGradient>
				<path fill="url(#SVGID_1_)" d="M297,123.5c-8.4-12-7.1-40.6,22.5-45.7l-9.3,34C302.7,113.5,298.6,116.8,297,123.5z"/>
			</g>

				<linearGradient id="SVGID_2_" gradientUnits="userSpaceOnUse" x1="304.6259" y1="355.3074" x2="321.793" y2="355.3074" gradientTransform="matrix(1.6388 0 0 1.6388 -209.1364 -378.1123)">
				<stop  offset="0" style="stop-color:#ABAAD2"/>
				<stop  offset="1" style="stop-color:#25358E"/>
			</linearGradient>
			<path fill="url(#SVGID_2_)" d="M289.7,231.3c8.1-2.8,19.2-12,22.5-23.6l5.7-30.7c-2.5,13.1-12.7,20.1-22,23.4L289.7,231.3z"/>
			<path fill="#25358E" d="M77.8,138c138.1-4.6,201.6,2.6,226,16.5c7.5,4.3,12.9,19.7,4.7,29.4c-3.1-22.8-70.9-46-230.4-45.9"/>
		</g>
	</g>
	<g>
		<path d="M473.4,188c2,0,3.7,1.7,3.7,3.7c0,2.1-1.6,3.7-3.7,3.7c-2,0-3.7-1.6-3.7-3.7C469.7,189.7,471.3,188,473.4,188L473.4,188z
			 M473.4,188.6c-1.6,0-3,1.4-3,3.1c0,1.8,1.3,3.2,3,3.2c1.7,0,3-1.4,3-3.1C476.3,190,475,188.6,473.4,188.6L473.4,188.6z
			 M472.7,193.9H472v-4.2c0.3,0,0.7-0.1,1.2-0.1c0.6,0,1,0.1,1.3,0.3c0.3,0.2,0.4,0.5,0.4,0.9c0,0.5-0.4,0.9-0.8,1v0
			c0.4,0.1,0.6,0.4,0.7,1c0.1,0.6,0.2,0.9,0.3,1h-0.7c-0.1-0.1-0.2-0.5-0.3-1.1c-0.1-0.5-0.4-0.7-0.9-0.7h-0.5V193.9z M472.7,191.6
			h0.5c0.5,0,1-0.2,1-0.7c0-0.4-0.3-0.7-1-0.7c-0.2,0-0.4,0-0.5,0V191.6z"/>
	</g>
</g>
</svg>
