<?xml version="1.0" encoding="UTF-8" standalone="no"?>
<svg id="svg2759" xmlns:rdf="http://www.w3.org/1999/02/22-rdf-syntax-ns#" xmlns="http://www.w3.org/2000/svg" height="42" width="120" version="1.0" xmlns:cc="http://web.resource.org/cc/" xmlns:dc="http://purl.org/dc/elements/1.1/">
 <metadata id="metadata2764">
  <rdf:RDF>
   <cc:Work rdf:about="">
    <dc:format>image/svg+xml</dc:format>
    <dc:type rdf:resource="http://purl.org/dc/dcmitype/StillImage"/>
   </cc:Work>
  </rdf:RDF>
 </metadata>
 <g id="layer1">
  <g id="g78" transform="matrix(.99378 0 0 .99367 -177.69 -223.31)">
   <path id="path3817_6_" fill="#aab2ab" nodetypes="ccccccc" d="m182.24 225.17l114.06 0.21c1.59 0 3.02-0.24 3.02 3.18l-0.14 37.56h-119.82v-37.7c0-1.69 0.16-3.25 2.88-3.25z"/>
   <g id="g5908_6_" transform="matrix(.87292 0 0 .87292 50.125 143.21)">
    <path id="path5906_6_" d="m187.21 115.91c0.01 8.68-7.03 15.72-15.71 15.72-8.68 0.01-15.72-7.02-15.73-15.7v-0.02c0-8.68 7.03-15.72 15.71-15.73 8.68 0 15.72 7.03 15.73 15.71v0.02z" rx="22.939548" ry="22.939548" cy="264.3577" cx="296.35416" type="arc" fill="#fff"/>
    <g id="g5706_6_" transform="translate(-289.62 99.065)">
     <path id="path5708_6_" d="m473.88 4.0407c3.49 3.4848 5.23 7.7523 5.23 12.801 0 5.05-1.71 9.272-5.14 12.669-3.63 3.575-7.93 5.363-12.88 5.363-4.9 0-9.12-1.772-12.67-5.32-3.55-3.545-5.32-7.783-5.32-12.712 0-4.928 1.77-9.1957 5.32-12.801 3.46-3.4874 7.68-5.2304 12.67-5.2304 5.04 0 9.31 1.743 12.79 5.2301zm-23.11 2.3437c-2.95 2.977-4.42 6.4636-4.42 10.463 0 3.998 1.46 7.455 4.37 10.371 2.92 2.916 6.39 4.375 10.42 4.375s7.53-1.472 10.5-4.419c2.83-2.737 4.24-6.178 4.24-10.327 0-4.118-1.43-7.6132-4.3-10.485-2.87-2.8695-6.35-4.306-10.44-4.306-4.09 0.0001-7.55 1.4432-10.37 4.3284zm7.75 8.7036c-0.45-0.982-1.12-1.472-2.02-1.472-1.59 0-2.39 1.069-2.39 3.208s0.8 3.209 2.39 3.209c1.05 0 1.8-0.521 2.25-1.564l2.2 1.172c-1.05 1.865-2.63 2.799-4.73 2.799-1.62 0-2.91-0.496-3.89-1.49-0.97-0.993-1.46-2.362-1.46-4.108 0-1.715 0.5-3.076 1.51-4.085 1-1.008 2.25-1.512 3.75-1.512 2.22 0 3.81 0.874 4.78 2.623l-2.39 1.22zm10.36 0c-0.45-0.982-1.11-1.472-1.98-1.472-1.62 0-2.43 1.069-2.43 3.208s0.81 3.209 2.43 3.209c1.05 0 1.79-0.521 2.21-1.564l2.25 1.172c-1.05 1.865-2.62 2.799-4.72 2.799-1.61 0-2.91-0.496-3.88-1.49-0.98-0.993-1.46-2.362-1.46-4.108 0-1.715 0.49-3.076 1.48-4.085 0.99-1.008 2.25-1.512 3.77-1.512 2.22 0 3.81 0.874 4.77 2.623l-2.44 1.22z"/>
    </g>
   </g>
   <g id="g85">
    <circle id="circle87" cy="240.01" cx="242.56" r="10.806" fill="#fff"/>
    <g id="g89">
     <path id="path91" d="m245.69 236.88c0-0.42-0.34-0.75-0.75-0.75h-4.78c-0.41 0-0.75 0.33-0.75 0.75v4.77h1.33v5.65h3.62v-5.65h1.33v-4.77z"/>
     <circle id="circle93" cy="233.87" cx="242.55" r="1.6323"/>
    </g>
    <path id="path95" fill-rule="evenodd" clip-rule="evenodd" d="m242.53 228.1c-3.23 0-5.96 1.13-8.2 3.38-2.3 2.34-3.45 5.1-3.45 8.29s1.15 5.93 3.45 8.23c2.29 2.29 5.03 3.44 8.2 3.44 3.22 0 6-1.16 8.36-3.47 2.22-2.2 3.33-4.93 3.33-8.2s-1.13-6.03-3.39-8.29c-2.26-2.25-5.02-3.38-8.3-3.38zm0.03 2.1c2.65 0 4.9 0.93 6.75 2.8 1.87 1.85 2.81 4.1 2.81 6.77 0 2.68-0.92 4.91-2.75 6.68-1.93 1.9-4.2 2.86-6.81 2.86s-4.85-0.95-6.74-2.83c-1.89-1.89-2.84-4.12-2.84-6.71s0.96-4.84 2.87-6.77c1.83-1.87 4.07-2.8 6.71-2.8z"/>
   </g>
   <path id="path97" d="m297.3 224.73h-116.23c-1.25 0-2.26 1.02-2.26 2.26v39.5c0 0.28 0.23 0.51 0.51 0.51h119.73c0.28 0 0.51-0.23 0.51-0.51v-39.5c0-1.24-1.02-2.26-2.26-2.26zm-116.23 1.02h116.23c0.68 0 1.24 0.56 1.24 1.24v27.38h-83.08c-3.04 5.51-8.91 9.25-15.64 9.25-6.74 0-12.6-3.74-15.65-9.25h-4.34v-27.38c0-0.68 0.55-1.24 1.24-1.24z"/>
   <g id="g99" enable-background="new    " fill="#fff">
    <path id="path101" d="m239.18 257.69c0.32 0 0.61 0.03 0.87 0.08 0.26 0.06 0.48 0.15 0.67 0.28 0.19 0.12 0.33 0.29 0.44 0.51 0.1 0.21 0.15 0.47 0.15 0.78 0 0.34-0.08 0.62-0.23 0.84s-0.38 0.41-0.68 0.55c0.41 0.12 0.72 0.32 0.93 0.62 0.2 0.3 0.3 0.65 0.3 1.07 0 0.34-0.07 0.63-0.2 0.87-0.13 0.25-0.3 0.45-0.52 0.6-0.23 0.16-0.48 0.28-0.76 0.35-0.29 0.08-0.58 0.11-0.88 0.11h-3.23v-6.66h3.14zm-0.19 2.69c0.26 0 0.48-0.06 0.65-0.18 0.16-0.13 0.25-0.33 0.25-0.61 0-0.15-0.03-0.28-0.09-0.38-0.05-0.1-0.13-0.18-0.22-0.23-0.09-0.06-0.2-0.1-0.32-0.12s-0.25-0.03-0.38-0.03h-1.37v1.55h1.48zm0.09 2.83c0.14 0 0.28-0.01 0.41-0.04s0.24-0.07 0.34-0.14 0.18-0.15 0.24-0.27c0.06-0.11 0.09-0.25 0.09-0.43 0-0.34-0.1-0.58-0.29-0.73-0.19-0.14-0.45-0.22-0.77-0.22h-1.59v1.83h1.57z"/>
    <path id="path103" d="m241.89 257.69h1.64l1.56 2.63 1.55-2.63h1.64l-2.48 4.1v2.56h-1.46v-2.59l-2.45-4.07z"/>
   </g>
   <g id="g105" enable-background="new    " fill="#fff">
    <path id="path107" d="m265.28 257.69l2.78 4.47h0.02v-4.47h1.37v6.66h-1.46l-2.78-4.46h-0.02v4.46h-1.37v-6.66h1.46z"/>
    <path id="path109" d="m273.61 257.69c0.43 0 0.83 0.07 1.2 0.2 0.38 0.14 0.7 0.35 0.97 0.62s0.48 0.62 0.63 1.03c0.16 0.41 0.23 0.89 0.23 1.44 0 0.49-0.06 0.94-0.18 1.35-0.13 0.41-0.32 0.76-0.57 1.06s-0.57 0.53-0.94 0.71c-0.38 0.17-0.82 0.25-1.34 0.25h-2.87v-6.66h2.87zm-0.1 5.43c0.21 0 0.42-0.04 0.62-0.1 0.2-0.07 0.37-0.19 0.53-0.34 0.15-0.16 0.28-0.37 0.37-0.62 0.1-0.26 0.14-0.57 0.14-0.94 0-0.33-0.03-0.64-0.09-0.91-0.07-0.27-0.18-0.5-0.33-0.69s-0.34-0.34-0.59-0.44c-0.25-0.11-0.55-0.16-0.91-0.16h-1.05v4.2h1.31z"/>
   </g>
   <g id="g6501" transform="matrix(0.625 0 0 0.625 -183.01 316.93)">
    <path id="path6503" d="m743.93-123.4c0.01 9.41-7.62 17.05-17.03 17.06-9.41 0-17.05-7.62-17.06-17.04v-0.02c0-9.41 7.62-17.05 17.04-17.05 9.41-0.01 17.04 7.61 17.05 17.03v0.02z" rx="29.209877" ry="29.209877" cy="252.08646" cx="475.97119" type="arc" fill="#fff"/>
    <g id="g6505" transform="translate(-23.952 -87.921)">
     <path id="path6507" d="m750.57-54.149c-5.17 0-9.55 1.803-13.13 5.412-3.68 3.735-5.51 8.154-5.51 13.258 0 5.103 1.83 9.489 5.51 13.163 3.68 3.672 8.05 5.508 13.13 5.508 5.14 0 9.6-1.853 13.37-5.555 3.55-3.517 5.33-7.889 5.33-13.116 0-5.229-1.81-9.647-5.43-13.258-3.61-3.609-8.03-5.412-13.27-5.412zm0.05 3.358c4.24 0 7.83 1.495 10.79 4.484 3 2.955 4.49 6.563 4.49 10.828 0 4.294-1.46 7.857-4.39 10.688-3.09 3.05-6.72 4.573-10.89 4.573-4.18 0-7.78-1.507-10.8-4.528-3.02-3.017-4.53-6.595-4.53-10.733 0-4.14 1.53-7.748 4.58-10.828 2.93-2.989 6.51-4.484 10.75-4.484z"/>
     <g id="g6509">
      <path id="path6511" d="m757.65-39.904h-13.57v3.214h13.57v-3.214zm0 6h-13.57v3.214h13.57v-3.214z"/>
     </g>
    </g>
   </g>
  </g>
 </g>
</svg>
