<?xml version="1.0" encoding="UTF-8" standalone="no"?>
<!-- Created with Inkscape (http://www.inkscape.org/) -->

<svg
   xmlns:dc="http://purl.org/dc/elements/1.1/"
   xmlns:cc="http://creativecommons.org/ns#"
   xmlns:rdf="http://www.w3.org/1999/02/22-rdf-syntax-ns#"
   xmlns:svg="http://www.w3.org/2000/svg"
   xmlns="http://www.w3.org/2000/svg"
   xmlns:sodipodi="http://sodipodi.sourceforge.net/DTD/sodipodi-0.dtd"
   xmlns:inkscape="http://www.inkscape.org/namespaces/inkscape"
   width="120.90505mm"
   height="61.452126mm"
   viewBox="0 0 120.90505 61.452126"
   version="1.1"
   id="svg8"
   inkscape:version="0.92.1 r15371"
   sodipodi:docname="Geonovum_logo.svg">
  <defs
     id="defs2" />
  <sodipodi:namedview
     id="base"
     pagecolor="#ffffff"
     bordercolor="#666666"
     borderopacity="1.0"
     inkscape:pageopacity="0.0"
     inkscape:pageshadow="2"
     inkscape:zoom="0.66537102"
     inkscape:cx="-80.138207"
     inkscape:cy="250.36261"
     inkscape:document-units="mm"
     inkscape:current-layer="layer1"
     showgrid="false"
     inkscape:window-width="1366"
     inkscape:window-height="705"
     inkscape:window-x="-8"
     inkscape:window-y="-8"
     inkscape:window-maximized="1"
     fit-margin-top="0"
     fit-margin-left="0"
     fit-margin-right="0"
     fit-margin-bottom="0" />
  <metadata
     id="metadata5">
    <rdf:RDF>
      <cc:Work
         rdf:about="">
        <dc:format>image/svg+xml</dc:format>
        <dc:type
           rdf:resource="http://purl.org/dc/dcmitype/StillImage" />
        <dc:title></dc:title>
      </cc:Work>
    </rdf:RDF>
  </metadata>
  <g
     inkscape:label="Laag 1"
     inkscape:groupmode="layer"
     id="layer1"
     transform="translate(-72.844758,-82.941436)">
    <g
       transform="matrix(0.35277777,0,0,-0.35277777,72.844758,144.39356)"
       inkscape:label="ink_ext_XXXXXX"
       id="g18">
      <g
         transform="scale(0.1)"
         id="g20">
        <path
           inkscape:connector-curvature="0"
           id="path22"
           style="fill:#80cc28;fill-opacity:1;fill-rule:nonzero;stroke:none"
           d="m 1159.51,608.082 v 255.07 L 904.449,608.082 Z M 147.094,1365.4 402.207,1620.51 280.766,1741.95 H 280.77 25.6484 v -255.12 l 0.0079,0.01 z M 904.402,1741.95 25.6484,863.152 V 608.082 H 280.77 l -0.004,0.008 311.824,311.812 121.437,-121.449 255.118,255.117 -121.45,121.46 311.815,311.8 v 255.12 H 904.402" />
        <path
           inkscape:connector-curvature="0"
           id="path24"
           style="fill:#0f80cc;fill-opacity:1;fill-rule:nonzero;stroke:none"
           d="m 2791.36,1741.95 h -497.99 l 249,-249 z m 380.76,0 -878.76,-878.798 v -255.07 h 255.12 l 439.38,439.378 439.36,-439.378 h 0.01 V 1741.95 Z m -878.76,0 v -0.01 l 0.01,0.01 z" />
        <path
           inkscape:connector-curvature="0"
           id="path26"
           style="fill:#80cc28;fill-opacity:1;fill-rule:nonzero;stroke:none"
           d="M 155.621,0 C 52.082,0 0,53.3203 0,177.32 c 0,132.059 75.6406,190.961 168.023,190.961 52.7,0 92.375,-21.082 122.137,-52.082 l -29.14,-36.578 c -26.04,14.879 -54.559,24.18 -81.84,24.18 -55.801,0 -94.8597,-40.922 -94.8597,-114.699 0,-96.7309 36.5777,-124.6332 84.3247,-124.6332 21.078,0 38.433,5.5898 48.359,12.4101 v 81.2231 h -50.223 v 53.32 H 297.602 V 47.7383 C 260.398,17.3594 210.801,0 155.621,0" />
        <path
           inkscape:connector-curvature="0"
           id="path28"
           style="fill:#80cc28;fill-opacity:1;fill-rule:nonzero;stroke:none"
           d="M 417.25,6.82031 V 361.461 h 219.484 v -63.25 H 499.711 V 217 H 614.414 V 157.48 H 499.711 V 71.3008 H 639.215 V 6.82031 H 417.25" />
        <path
           inkscape:connector-curvature="0"
           id="path30"
           style="fill:#80cc28;fill-opacity:1;fill-rule:nonzero;stroke:none"
           d="m 890.945,305.039 c -48.355,0 -83.695,-31.008 -83.695,-114.078 0,-95.4805 32.238,-127.1016 88.039,-127.1016 49.598,0 84.941,31 84.941,116.5626 0,91.758 -32.242,124.617 -89.285,124.617 z M 889.094,0 C 783.07,0 719.828,45.8789 719.828,179.801 c 0,129.578 73.781,188.48 178.563,188.48 107.879,0 169.259,-49.601 169.259,-176.699 C 1067.65,50.2188 985.813,0 889.094,0" />
        <path
           inkscape:connector-curvature="0"
           id="path32"
           style="fill:#797677;fill-opacity:1;fill-rule:nonzero;stroke:none"
           d="M 1397.75,6.82031 1240.27,256.68 V 6.82031 h -68.82 V 361.461 h 102.92 l 143.22,-218.859 v 218.859 h 68.2 V 6.82031 h -88.04" />
        <path
           inkscape:connector-curvature="0"
           id="path34"
           style="fill:#797677;fill-opacity:1;fill-rule:nonzero;stroke:none"
           d="m 1788.96,305.039 c -48.36,0 -83.69,-31.008 -83.69,-114.078 0,-95.4805 32.23,-127.1016 88.03,-127.1016 49.61,0 84.94,31 84.94,116.5626 0,91.758 -32.24,124.617 -89.28,124.617 z M 1787.1,0 c -106.02,0 -169.26,45.8789 -169.26,179.801 0,129.578 73.78,188.48 178.56,188.48 107.88,0 169.26,-49.601 169.26,-176.699 C 1965.66,50.2188 1883.82,0 1787.1,0" />
        <path
           inkscape:connector-curvature="0"
           id="path36"
           style="fill:#797677;fill-opacity:1;fill-rule:nonzero;stroke:none"
           d="M 2274.44,6.82031 H 2173.37 C 2121.3,128.961 2085.95,241.801 2056.21,361.461 h 91.75 c 19.84,-91.141 47.74,-183.52 82.46,-280.8594 h 0.62 c 32.24,93.0004 55.8,186.0004 74.4,280.8594 h 81.84 C 2360.62,242.422 2324.04,121.52 2274.44,6.82031" />
        <path
           inkscape:connector-curvature="0"
           id="path38"
           style="fill:#797677;fill-opacity:1;fill-rule:nonzero;stroke:none"
           d="m 2653.88,0 c -98.58,0 -151.29,41.5313 -151.29,138.879 v 222.582 h 82.46 V 148.18 c 0,-63.2386 24.18,-88.6605 75.65,-88.6605 47.12,0 75.64,22.3203 75.64,83.6915 v 218.25 h 81.21 V 148.18 C 2817.55,43.3984 2749.36,0 2653.88,0" />
        <path
           inkscape:connector-curvature="0"
           id="path40"
           style="fill:#797677;fill-opacity:1;fill-rule:nonzero;stroke:none"
           d="m 3328.43,6.82031 c -1.86,93.62069 -9.92,185.98869 -19.22,265.96869 h -0.62 L 3214.35,6.82031 h -68.2 L 3054.39,272.18 h -0.63 c -8.67,-79.371 -14.25,-171.739 -15.49,-265.35969 h -78.74 C 2963.25,124.621 2974.41,244.281 2993,361.461 h 108.51 L 3187.07,124 h 0.62 l 89.28,237.461 h 104.16 c 16.12,-117.18 27.28,-236.84 32.86,-354.64069 h -85.56" />
        <path
           inkscape:connector-curvature="0"
           id="path42"
           style="fill:#797677;fill-opacity:1;fill-rule:nonzero;stroke:none"
           d="M 2293.37,608.082 V 863.16 L 2038.31,608.082 Z M 1159.51,1741.95 v -498.01 l 497.99,498.01 z m 878.76,0 -878.76,-878.798 v -255.07 h 498.01 l 635.85,635.868 v 498 h -255.1" />
      </g>
    </g>
  </g>
</svg>
