<?xml version="1.0" encoding="UTF-8" standalone="no"?>
<svg id="svg8" xmlns:rdf="http://www.w3.org/1999/02/22-rdf-syntax-ns#" xmlns="http://www.w3.org/2000/svg" height="61.452mm" width="120.91mm" version="1.1" xmlns:cc="http://creativecommons.org/ns#" xmlns:dc="http://purl.org/dc/elements/1.1/" viewBox="0 0 120.90505 61.452126">
 <metadata id="metadata5">
  <rdf:RDF>
   <cc:Work rdf:about="">
    <dc:format>image/svg+xml</dc:format>
    <dc:type rdf:resource="http://purl.org/dc/dcmitype/StillImage"/>
    <dc:title/>
   </cc:Work>
  </rdf:RDF>
 </metadata>
 <g id="layer1" transform="translate(-72.845 -82.941)">
  <g id="g18" transform="matrix(.35278 0 0 -.35278 72.845 144.39)">
   <g id="g20" transform="scale(.1)">
    <path id="path22" d="m1159.5 608.08v255.07l-255.05-255.07zm-1012.4 757.32 255.12 255.1-121.44 121.5h-255.12v-255.12l0.0079 0.01zm757.31 376.6-878.75-878.85v-255.07h255.12l-0.004 0.008 311.82 311.81 121.44-121.45 255.12 255.12-121.45 121.46 311.82 311.8v255.12h-255.1" fill="#80cc28"/>
    <path id="path24" d="m2791.4 1742h-497.99l249-249zm380.76 0-878.76-878.8v-255.07h255.12l439.38 439.38 439.36-439.38h0.01v1133.9zm-878.76 0v-0.01l0.01 0.01z" fill="#0f80cc"/>
    <path id="path26" d="m155.62 0c-103.54 0-155.62 53.32-155.62 177.32 0 132.06 75.641 190.96 168.02 190.96 52.7 0 92.375-21.082 122.14-52.082l-29.14-36.578c-26.04 14.879-54.559 24.18-81.84 24.18-55.801 0-94.86-40.922-94.86-114.7 0-96.731 36.578-124.63 84.325-124.63 21.078 0 38.433 5.5898 48.359 12.41v81.223h-50.223v53.32h130.82v-163.68c-37.2-30.381-86.8-47.74-141.98-47.74" fill="#80cc28"/>
    <path id="path28" d="m417.25 6.8203v354.64h219.48v-63.25h-137.02v-81.21h114.7v-59.52h-114.7v-86.179h139.51v-64.481h-221.97" fill="#80cc28"/>
    <path id="path30" d="m890.94 305.04c-48.355 0-83.695-31.008-83.695-114.08 0-95.48 32.238-127.1 88.039-127.1 49.598 0 84.941 31 84.941 116.56 0 91.758-32.242 124.62-89.285 124.62zm-1.85-305.04c-106.02 0-169.26 45.879-169.26 179.8 0 129.58 73.781 188.48 178.56 188.48 107.88 0 169.26-49.601 169.26-176.7 0-141.36-81.79-191.58-178.51-191.58" fill="#80cc28"/>
    <path id="path32" d="m1397.8 6.8203-157.5 249.86v-249.86h-68.82v354.64h102.92l143.22-218.86v218.86h68.2v-354.64h-88.04" fill="#797677"/>
    <path id="path34" d="m1789 305.04c-48.36 0-83.69-31.008-83.69-114.08 0-95.48 32.23-127.1 88.03-127.1 49.61 0 84.94 31 84.94 116.56 0 91.758-32.24 124.62-89.28 124.62zm-1.9-305.04c-106.02 0-169.26 45.879-169.26 179.8 0 129.58 73.78 188.48 178.56 188.48 107.88 0 169.26-49.601 169.26-176.7 0-141.36-81.9-191.58-178.6-191.58" fill="#797677"/>
    <path id="path36" d="m2274.4 6.8203h-101c-52.1 122.14-87.4 234.98-117.2 354.64h91.75c19.84-91.141 47.74-183.52 82.46-280.86h0.62c32.24 93 55.8 186 74.4 280.86h81.84c-26.7-119.04-63.3-239.94-112.9-354.64" fill="#797677"/>
    <path id="path38" d="m2653.9 0c-98.58 0-151.29 41.531-151.29 138.88v222.58h82.46v-213.28c0-63.239 24.18-88.66 75.65-88.66 47.12 0 75.64 22.32 75.64 83.692v218.25h81.21v-213.28c0-104.78-68.2-148.18-163.7-148.18" fill="#797677"/>
    <path id="path40" d="m3328.4 6.8203c-1.86 93.621-9.92 185.99-19.22 265.97h-0.62l-94.2-265.97h-68.2l-91.8 265.36h-0.63c-8.67-79.371-14.25-171.74-15.49-265.36h-78.74c3.6 117.8 14.8 237.46 33.4 354.64h108.51l85.6-237.46h0.62l89.28 237.46h104.16c16.12-117.18 27.28-236.84 32.86-354.64h-85.56" fill="#797677"/>
    <path id="path42" d="m2293.4 608.08v255.08l-255.1-255.08zm-1133.9 1133.9v-498.01l497.99 498.01zm878.76 0-878.76-878.8v-255.07h498.01l635.85 635.87v498h-255.1" fill="#797677"/>
   </g>
  </g>
 </g>
</svg>
