<?xml version="1.0" encoding="UTF-8" standalone="no"?>
<!DOCTYPE svg  PUBLIC '-//W3C//DTD SVG 1.1//EN'  'http://www.w3.org/Graphics/SVG/1.1/DTD/svg11.dtd'>
<svg style="shape-rendering:geometricPrecision;text-rendering:geometricPrecision;image-rendering:optimizeQuality" xmlns="http://www.w3.org/2000/svg" fill-rule="evenodd" xml:space="preserve" height="8in" width="8in" clip-rule="evenodd" xmlns:xlink="http://www.w3.org/1999/xlink" viewBox="0 0 8000 8000">
 <defs>
  <style type="text/css">
   <![CDATA[
    .str0 {stroke:black}
    .fil0 {fill:black}
   ]]>
  </style>
 </defs>
 <g id="Layer_x0020_1">
  <path class="fil0 str0" d="m1880 2c-91 15-117 123-143 196-67 194-105 396-169 590-7 19-44 247-86 211-37-32-2-334 3-364 32-204 129-433 141-509 16-103-88-101-152 35-45 95-125 357-147 453-75 333-32 388-13 682 7 109-123 232-166 328-75 167-97 482-19 649 70 149 204 276 337 366 42 29 152 93 156 148 5 84-82 23 91 354 136 260 203 223 274 406 40 104 105 160 202 214 91 51 174 83 267 140 192 114 325 51 396 250 43 120-68 275-70 399-2 137 45 168 23 352-29 252 107 212-43 504-105 205-114 239-146 466-40 280-91 306-48 631 33 252 125 506 309 687 249 244 722 424 846 604 82 120 96 234 302 119 222-124 152-123 399-89 290 41 489 159 643 173 178 16 199-73 329-149 177-103 357-146 426-369 89-288-78-572 144-908 54-81 163-91-20-300-134-154-348-237-533-309-81-32-150-88-224-132-203-120-415-224-438-487-7-76 3-153-15-228-22-91 18-101 31-177 12-76 56-403 46-462-20-119-55-100 12-213 42-71 3-188 121-185 86 2 80 2 166-34 138-57 170-78 319-124 179-54 137-136 234-221 110-96 232-195 351-280 122-86 157-110 155-250 0-42-3-91 29-121 264-239 657-262 714-704 21-160-18-377-98-518-82-143-102-147-49-282 41-106 50-335 46-443-8-205-54-407-89-609-7-37-29-178-78-192-92-29-75 146-78 193-10 213 93 620 79 696-10 53-44 25-56-13-16-49-93-433-101-472-17-87-48-280-74-353-59-168-130-101-120 43 14 220 85 384 115 585 19 125 23 165 60 288 5 15 100 335-16 259-46-30-120-149-165-200-107-123-157-161-245-308-41-67-143-241-228-258-55-11-54 54-40 98 21 67 81 219 109 275 107 222 285 350 414 559 67 108 84 150 81 266-2 100 8 137-14 261-39 213-149 477-364 562-245 97-499 49-754 39-430-16-307-211-311-554-1-102-8-442-60-530-35-61-131-35-104 180 13 96 36 189 21 287-43 263-142 686-406 814-47 23-201 78-250 79-64 1-73-13-149-1-239 35-170-47-338-43-88 2-108-55-200-92-46-19-94-35-126-75-143-175-168-482-152-699 7-84 30-309 49-385 31-130-27-138-73-80-114 145-126 162-162 348-23 119-52 284-47 404 9 177-18 204-198 230-246 36-514-30-737-136-125-59-207-88-277-221-79-153-118-424-132-602-9-105-24-96 62-199 62-75 137-140 205-211 160-166 310-336 450-521 54-71 145-200 66-283-83-86-164 104-211 160-146 169-301 333-467 482-7 6-97 104-96 42 0-12 66-172 74-193 114-310 151-474 226-790 11-47 87-248-26-229zm-496 1869c-63 7-64 275 57 249 47-10-15-206-27-226-8-15-18-25-30-23zm5206 263c-75 28-122 338 18 222 122-100 35-241-18-222zm-4677 602c-152 8-170 86-77 75 165-19 454 46 597 93 164 55 336 128 465 244 41 37 156 165 203 145 83-36-165-233-186-249-251-188-484-207-775-275-73-17-151-37-227-33zm2 146c-18 9-18 31 0 41 71 36 148 47 213 95 78 59 142 36 190 92 44 52 88-6 180-5 171 1 144-53-7-111-138-53-166-66-314-91-62-11-209-49-262-21zm3192 23c-168 21-391 102-513 221-32 31-175 169-139 220 28 40 93-38 111-56 133-133 188-199 377-270 286-108 697-101 967 62 35 21 145 173 168 113 25-64-113-145-155-164-176-81-429-131-622-136-65-1-130 2-194 10zm-3334 66c-83 44 100 264 148 302 66 51 135 5 155 82 15 54 50 87 107 98 45 8 169-20 105-61-38-24-67-29-36-73 42-61-55-70-88-88-96-55-181-96-260-176-23-24-96-102-131-84zm3558 56c-41 5-164 53-96 107 54 43 283 132 303 112 23-24-22-93 80-43 99 49 73-43 148-15 26 9 49 24 77 13 76-29-80-96-102-105-128-50-273-86-410-69zm-1812 76c-67 3-192 13-229 80-46 81 213-10 234-23 25-16 38-58-5-57zm-803 5c-42 8-323 99-176 190 108 67-43 89 26 159 46 46 31 39 39 97 11 80 136 114 190 163 41 37 84 59 105-13 28-97-60-81-62-158-2-98-74-119-40-199 29-67 59-88 23-165-19-41-55-82-105-74zm2336 39c-106 20-347 198-188 294 70 42 210 99 29 151-109 30-142 33-96 138 45 100-4 255 179 215 79-18 124-110 6-119-74-5-122-11-40-85 133-120 191 67 301 95 94 25 181-10 104-57-63-38-8-56 25-100 51-65-33-86-76-55-57 42-71 114-156 47-52-42 3-56-13-123-8-38-29-79-5-115 32-50-44-70 21-105 50-27 8-59-4-93-18-52-12-103-87-88zm-881 26c-71 29 177 165 145 81-16-42-102-99-145-81zm13 150c-64 11 9 140 40 157 36 20 86 23 96 105 16 128 11 62 47 131 31 62-81 30-102 77-54 115-15 160-33 242-21 106 18 87 86 141 91 74 94-12 172-19 200-19 216-181 85-108-93 53-299 33-249-76 32-70 118-152 202-125 24 8 132 111 153 76 27-44-58-121-73-159-34-81-99-45-147-172-42-110-89-94-139-167-33-48-68-115-138-103zm1622 0c-94 17-125 103-244 101-52-1-257-24-160 88 92 105 122 14 175 0 94-25 246 8 300-97 30-58-5-103-71-92zm-2538 17c-103 29-79 218-123 291-28 46-73 91-76 163-4 77 123-46 200-13 93 40 221 221-50 194-61-6-128-42-143 0-27 74 135 94 172 129 74 70 74-22 135-67 95-68 65-58 77-163 13-105 96-145-145-269-16-9-119-2-60-74 43-50 85-30 57-139-5-21-18-59-44-52zm1267 112c-28 25 39 64 51 127 15 75 94 134 130 239 37 105 67 88 34-1-21-57-29-99-57-165-8-20-103-248-158-200zm-2185 55c-137 28-129 132-31 133 93 1 57 53 169 105 83 39 62 37 111 110 63 96 185-10 125-82-69-82-200-93-251-184-32-57-43-99-123-82zm601 274c-112 50-41 250 8 224 45-22 16-211 14-214-4-10-11-15-22-10zm295 58c-39 5-37 66 5 63 42-4 39-70-5-63zm1229 71c-43 17-20 86 24 71 46-16 21-90-24-71zm267 239c-33 10-59 105-8 87 27-10 52-100 8-87zm-1658 40c-53 23-73 237-76 278-2 41-14 252 15 290 20 27 43 0 46-44 6-78 7-65 44-137 79-159-64-39-38-177 5-28 61-232 9-210zm675-5c-88 12-154 137-198 202-71 104-156 221-172 351-12 94 40 107 42 49 5-114 2-167 117-241 156-100 209-12 247-158 13-51 53-138 13-187-10-12-26-19-49-16zm192 13c-75 18-65 206-22 260 42 51 308 211 250 359-15 37-30 71-5 109 28 42 72 40 76-66 10-255-75-365-195-576-21-36-55-98-104-86zm-606 35c-38 7-78 97-62 149 28 88 48 81 2 190-55 129-98 180-78 328 15 112 83 85 75-5-9-87-14-111 17-199 27-76 63-147 101-217 29-52 15-110 0-170-7-26-22-82-55-76zm1219 33c-42 24 49 155 59 187 43 134-83 191-107 340-15 90 95-6 116-30 86-102 112-263 53-383-16-32-71-144-121-114zm-297 25c-78 29 9 353 74 279 16-18 29-45 50-12 91 141-136 384-48 365 65-13 113-180 121-226 25-139-31-204-96-318-18-31-55-105-101-88zm-1354 189c-47 7-35 100-37 131-6 105 24 214 1 317-20 89 46 155 79 149 35-6 87-66 56-120-45-82-87-70-84-278 0-61 8-87 11-141 1-20 2-61-26-58zm650 185c-81 15-35 155 37 145 48-7-1-152-37-145zm510 51c-51 18-131 201-9 133 90-50 47-147 9-133zm-406 197c-27 10-142 61-154 83-38 69 126 49 153 39 66-25 95-158 1-122zm262 7c-62 17-30 109 80 118 90 8 68-63-35-108-19-8-36-12-45-10zm675 0c-113 23-140 237-78 315 42 52 76 72 35 176-37 93-143 183-132 288 9 95 60 135-15 218-136 149 114 70-213 348-67 56-12 95 109-26 97-96 305-263 433-302 155-48 158-62 54-171-89-94-121-350-123-478-5-248-24-164-33-245-3-28 18-134-37-123zm-1156 170c-43 33 140 109 175 127 131 66 365 76 464-51 36-45-14-58-52-52-97 15-54 24-186 21-57-1-241-9-288-26-29-10-85-42-113-19zm900 199c-138 37-142 144-355 109-238-40-152-17-369-15-219 2-431-155-591-16-163 141-104 289-79 473 25 178 23 346 188 459 90 61 139-30 307 27 113 38 196 40 314 14 318-71 328-297 449-555 67-142 189-254 216-417 9-61-9-99-80-79zm-1556 359c-27 18-65 236-69 265-51 390 80 811 339 1107 89 101 203 154 311 230 83 60 134 34 60-37-23-22-115-79-78-112 32-28 49-43-22-97l-65-48c-126-108-280-219-352-373-19-41 12-84-7-126-93-202-170-389-123-615 0 0 56-228 6-194z"/>
 </g>
</svg>
