<svg xmlns="http://www.w3.org/2000/svg" width="212" height="114">
<title>W3C Logo</title>
<path fill="#0067B1" d="M57.389,1.619l19.579,66.569L96.548,1.619h14.178h38.91v6.616l-19.985,34.433
c7.02,2.254,12.334,6.351,15.934,12.293s5.402,12.917,5.402,20.926c0,9.909-2.636,18.234-7.898,24.987
c-5.271,6.75-12.087,10.122-20.461,10.122c-6.301,0-11.793-2.004-16.473-6.01c-4.683-4.002-8.147-9.427-10.398-16.269
l11.072-4.592c1.621,4.145,3.761,7.407,6.417,9.792c2.657,2.384,5.784,3.575,9.383,3.575c3.779,0,6.977-2.114,9.59-6.344
c2.611-4.229,3.917-9.316,3.917-15.262c0-6.569-1.398-11.658-4.186-15.259c-3.245-4.228-8.332-6.347-15.262-6.347h-5.401V47.8
l18.905-32.679h-22.822l-1.297,2.213l-27.755,93.661h-1.349L56.712,43.208l-20.254,67.787h-1.35L2.699,1.619h14.178l19.582,66.569
L49.691,23.36L43.21,1.619H57.389z"/>
<path d="M205.936,1l-8.008,15.968
c0,0-3.44-6.347-6.839-9.252c-3.235-2.764-7.425-5.321-12.727-4.771c-5.125,0.529-10.902,5.037-14.79,12.55
c-4.417,8.544-5.916,17.202-5.947,26.749c-0.045,13.377,4.89,22.506,4.89,22.506s-1.133-4.242-0.944-11.429
c0.122-4.483,0.149-9.361,3.533-19.443c2.834-8.424,9.312-15.258,15.026-16.438c4.453-0.917,7.298-0.25,11.669,2.829
c5.183,3.654,8.306,10.252,8.306,10.252l8.128-15.555L205.936,1L205.936,1z
M206.938,80.01c0,0-3.593,6.423-5.835,8.896
c-2.235,2.473-6.245,6.835-11.192,9.017c-4.948,2.18-7.54,2.591-12.432,2.121c-4.887-0.473-9.427-3.301-11.017-4.48
c-1.595-1.18-5.657-4.655-7.955-7.893c-2.298-3.241-5.894-9.722-5.894-9.722s2.004,6.496,3.256,9.252
c0.721,1.587,2.939,6.438,6.085,10.661c2.936,3.94,8.631,10.724,17.291,12.259c8.659,1.529,14.614-2.361,16.084-3.302
c1.472-0.942,4.576-3.538,6.54-5.643c2.053-2.192,3.991-4.99,5.068-6.673c0.782-1.224,2.064-3.711,2.064-3.711L206.938,80.01 L206.938,80.01z"/>
</svg>
