<?xml version="1.0" encoding="utf-8" ?>
<!DOCTYPE svg PUBLIC "-//W3C//DTD SVG 1.1//EN" "http://www.w3.org/Graphics/SVG/1.1/DTD/svg11.dtd">
<svg version="1.1" id="Layer_1" xmlns="http://www.w3.org/2000/svg" width="210px" height="80px" xmlns:xlink="http://www.w3.org/1999/xlink" x="0px" y="0px" viewBox="0 0 210 80" enable-background="new 0 0 210 80" xml:space="preserve">
        <g>
            <g>
                <path d="M1.5,2.1H24c6.4,0,12.6,3.2,12.6,12c0,7.9-5.2,12.2-14.5,12.2H5.8v17.5h-4.3V2.1z M5.8,22.3h16.7 c7.2,0,9.4-3.3,9.4-8.2c0-6.3-3.5-8.1-8.5-8.1H5.8V22.3z"></path>
                <path d="M83.3,27.9c-0.9,9.4-8.6,17-20.6,17c-13.6,0-22.2-8.5-22.2-21.9c0-9.5,5.9-21.9,22.2-21.9c9.1,0,19,4.1,20.3,15.1h-4.3 c-1.3-7.9-8.4-11.2-16-11.2C52.3,5,45.1,10.8,45.1,23c0,9.3,4.9,17.9,17.5,17.9c9.9,0,14.8-5,16.3-13H83.3z"></path>
                <path d="M90,2.1h4.3v41.7H90V2.1z"></path>
            </g>
            <g>
                <path d="M5.2,52.1H28l-1,4.6H10.8l-1.1,5h15.3l-0.9,4.4H8.8l-1.2,5.6h16.3l-1,4.6H0L5.2,52.1z"></path>
                <path d="M36.7,63.9l-7-11.8h7.9l3.7,7.6l7-7.6h7.9l-12,11.8l7.7,12.6h-8.2l-4.2-8.2l-7.7,8.2h-8.2L36.7,63.9z"></path>
                <path d="M58.9,52.1h16.4c6.9,0,7.7,4.1,7,7.4c-1.1,5.2-4.5,8.3-9.8,8.3h-10.3l-1.8,8.7h-6.6L58.9,52.1z M63.1,63.3h7.1 c2,0,4.4-0.1,5.1-3.3c0.7-3.2-1.2-3.4-3.1-3.4h-7.7L63.1,63.3z"></path>
                <path d="M87.3,52.1H105c6.7,0,7,4.1,6.5,6.6c-0.6,3-2.2,4.9-5.2,5.9l0,0.1c2.8,0.4,2.5,4.1,2,6.5c-0.3,1.2-0.8,4.1,0.1,5.3h-7.2 c-0.4-1.1-0.2-2.1,0.3-4.7c0.7-3.4-0.6-4.3-2.6-4.3h-8.2l-1.9,8.9h-6.6L87.3,52.1z M91.6,62.9h8.8c1.5,0,3.3-0.8,3.8-3.1 c0.5-2.4-1.3-3-2.9-3h-8.4L91.6,62.9z"></path>
                <path d="M116.3,52.1h22.7l-1,4.6H122l-1.1,5h15.3l-0.9,4.4H120l-1.2,5.6H135l-1,4.6h-22.9L116.3,52.1z"></path>
                <path d="M157.8,59.1c0.3-3.2-2.7-3.5-5.4-3.5c-2.7,0-4.8,1.2-5.1,2.9c-0.3,1.3,0.7,2,2.3,2.3l8,1.3c4.3,0.7,7.3,2.4,6.4,6.8 c-1,4.5-4.8,8.2-14.4,8.2c-5.9,0-13.5-0.8-11.9-8.4h7.4c-0.6,3.3,2.6,3.9,5.4,3.9c3.1,0,5.4-0.9,5.9-3c0.4-1.9-1-2.4-3.5-2.8 l-5.8-0.9c-4.1-0.6-7.9-1.9-6.9-6.9c1.2-5.4,6.1-7.6,13.7-7.6c5,0,12.3,0.9,11.3,7.7H157.8z"></path>
                <path d="M185.6,59.1c0.3-3.2-2.7-3.5-5.4-3.5c-2.7,0-4.8,1.2-5.1,2.9c-0.3,1.3,0.7,2,2.3,2.3l8,1.3c4.3,0.7,7.3,2.4,6.4,6.8 c-1,4.5-4.8,8.2-14.4,8.2c-5.9,0-13.5-0.8-11.9-8.4h7.4c-0.6,3.3,2.6,3.9,5.4,3.9c3.1,0,5.4-0.9,5.9-3c0.4-1.9-1-2.4-3.5-2.8 l-5.8-0.9c-4.1-0.6-7.9-1.9-6.9-6.9c1.2-5.4,6.1-7.6,13.7-7.6c5,0,12.3,0.9,11.2,7.7H185.6z"></path>
            </g>
            <g>
                <polygon fill="#0060A9" points="135.7,17.4 115.2,1.9 105.5,1.9 124.1,16.3"></polygon>
                <polygon fill="#0060A9" points="124,29.2 105.5,43.5 115.2,43.5 135.7,28.1"></polygon>
            </g>
            <g>
                <polygon fill="#0060A9" points="190.5,22.7 122.6,1.9 147.1,18.5"></polygon>
                <polygon fill="#0060A9" points="146.9,27 122.6,43.5 190.6,22.8"></polygon>
            </g>
            <g>
                <path d="M201.1,57.1c-0.7,0.7-1.5,1-2.4,1c-0.9,0-1.7-0.3-2.4-1c-0.7-0.7-1-1.5-1-2.4c0-0.9,0.3-1.7,1-2.4c0.7-0.7,1.4-1,2.4-1 c0.9,0,1.7,0.3,2.4,1c0.7,0.7,1,1.4,1,2.4C202.1,55.6,201.7,56.4,201.1,57.1z M196.6,52.6c-0.6,0.6-0.9,1.3-0.9,2.1 c0,0.8,0.3,1.5,0.8,2.1c0.6,0.6,1.3,0.9,2.1,0.9c0.8,0,1.5-0.3,2.1-0.9c0.6-0.6,0.9-1.3,0.9-2.1c0-0.8-0.3-1.5-0.9-2.1 c-0.6-0.6-1.3-0.9-2.1-0.9C197.9,51.8,197.2,52.1,196.6,52.6z M198.6,52.8c0.5,0,0.8,0,1,0.1c0.4,0.2,0.6,0.5,0.6,0.9 c0,0.3-0.1,0.6-0.4,0.7c-0.1,0.1-0.3,0.1-0.5,0.2c0.3,0,0.5,0.2,0.6,0.4c0.1,0.2,0.2,0.4,0.2,0.6V56c0,0.1,0,0.2,0,0.3 c0,0.1,0,0.2,0,0.2l0,0h-0.6c0,0,0,0,0,0c0,0,0,0,0,0l0-0.1V56c0-0.4-0.1-0.7-0.4-0.8c-0.1-0.1-0.4-0.1-0.7-0.1H198v1.5h-0.6v-3.7 H198.6z M199.3,53.4c-0.2-0.1-0.4-0.1-0.8-0.1H198v1.3h0.6c0.3,0,0.5,0,0.6-0.1c0.3-0.1,0.4-0.3,0.4-0.6 C199.6,53.7,199.5,53.5,199.3,53.4z"></path>
            </g>
            
        </g>
    </svg>